<svg width="540" height="240" viewBox="0 0 540 240" fill="none" xmlns="http://www.w3.org/2000/svg">
<path d="M120.62 100.151L139.175 100.029C139.175 106.296 138.198 112.196 136.245 117.729C134.373 123.263 131.647 128.146 128.066 132.378C124.567 136.528 120.376 139.824 115.493 142.266C110.692 144.626 105.402 145.806 99.624 145.806C92.5439 145.806 86.2777 144.382 80.8252 141.533C75.4541 138.685 69.5947 134.494 63.2471 128.96C59.0967 125.135 55.2718 122.165 51.7725 120.049C48.2731 117.933 44.4889 116.875 40.4199 116.875C36.2695 116.875 32.7295 117.892 29.7998 119.927C26.8701 121.88 24.5915 124.688 22.9639 128.35C21.4176 132.012 20.6445 136.406 20.6445 141.533L0.991211 141.777C0.991211 135.43 1.92708 129.53 3.79883 124.077C5.75195 118.625 8.47819 113.864 11.9775 109.795C15.4769 105.726 19.6273 102.593 24.4287 100.396C29.3115 98.1169 34.6419 96.9775 40.4199 96.9775C47.5814 96.9775 53.929 98.4831 59.4629 101.494C65.0781 104.505 70.8561 108.656 76.7969 113.945C81.2728 118.014 85.179 121.066 88.5156 123.101C91.9336 125.054 95.6364 126.03 99.624 126.03C103.856 126.03 107.518 124.932 110.61 122.734C113.784 120.537 116.226 117.485 117.935 113.579C119.725 109.673 120.62 105.197 120.62 100.151ZM520.767 100.151L539.321 100.029C539.321 106.296 538.345 112.196 536.392 117.729C534.52 123.263 531.794 128.146 528.213 132.378C524.714 136.528 520.522 139.824 515.64 142.266C510.838 144.626 505.549 145.806 499.771 145.806C492.69 145.806 486.424 144.382 480.972 141.533C475.601 138.685 469.741 134.494 463.394 128.96C459.243 125.135 455.418 122.165 451.919 120.049C448.42 117.933 444.635 116.875 440.566 116.875C436.416 116.875 432.876 117.892 429.946 119.927C427.017 121.88 424.738 124.688 423.11 128.35C421.564 132.012 420.791 136.406 420.791 141.533L401.138 141.777C401.138 135.43 402.074 129.53 403.945 124.077C405.898 118.625 408.625 113.864 412.124 109.795C415.623 105.726 419.774 102.593 424.575 100.396C429.458 98.1169 434.788 96.9775 440.566 96.9775C447.728 96.9775 454.076 98.4831 459.609 101.494C465.225 104.505 471.003 108.656 476.943 113.945C481.419 118.014 485.326 121.066 488.662 123.101C492.08 125.054 495.783 126.03 499.771 126.03C504.002 126.03 507.664 124.932 510.757 122.734C513.931 120.537 516.372 117.485 518.081 113.579C519.871 109.673 520.767 105.197 520.767 100.151Z" fill="black"/>
<path d="M232.314 0.0537109L237.075 13.9697C227.391 16.9808 220.718 22.3926 217.056 30.2051C213.394 37.9362 211.562 46.8066 211.562 56.8164V82.085C211.562 90.223 209.894 97.6286 206.558 104.302C203.302 110.894 198.094 116.143 190.933 120.049C183.853 123.955 174.535 125.908 162.979 125.908V111.016C172.174 111.016 178.766 108.411 182.754 103.203C186.823 97.9948 188.857 90.9554 188.857 82.085V56.8164C188.857 48.2715 190.16 40.2962 192.764 32.8906C195.449 25.4036 199.925 18.8525 206.191 13.2373C212.539 7.54069 221.247 3.14616 232.314 0.0537109ZM237.075 225.64L232.314 239.678C221.247 236.504 212.539 232.109 206.191 226.494C199.925 220.879 195.449 214.328 192.764 206.841C190.16 199.435 188.857 191.46 188.857 182.915V157.769C188.857 151.828 187.962 146.701 186.172 142.388C184.382 138.075 181.574 134.738 177.749 132.378C174.006 129.937 169.082 128.716 162.979 128.716V113.823C174.535 113.823 183.853 115.776 190.933 119.683C198.094 123.589 203.302 128.879 206.558 135.552C209.894 142.144 211.562 149.549 211.562 157.769V182.915C211.562 189.588 212.336 195.773 213.882 201.47C215.509 207.166 218.154 212.09 221.816 216.24C225.56 220.472 230.646 223.605 237.075 225.64ZM256.118 183.037C256.118 179.212 257.298 175.998 259.658 173.394C262.1 170.708 265.599 169.365 270.156 169.365C274.714 169.365 278.172 170.708 280.532 173.394C282.974 175.998 284.194 179.212 284.194 183.037C284.194 186.781 282.974 189.954 280.532 192.559C278.172 195.163 274.714 196.465 270.156 196.465C265.599 196.465 262.1 195.163 259.658 192.559C257.298 189.954 256.118 186.781 256.118 183.037ZM256.24 75.249C256.24 71.4242 257.42 68.2096 259.78 65.6055C262.222 62.9199 265.721 61.5771 270.278 61.5771C274.836 61.5771 278.294 62.9199 280.654 65.6055C283.096 68.2096 284.316 71.4242 284.316 75.249C284.316 78.9925 283.096 82.1663 280.654 84.7705C278.294 87.3747 274.836 88.6768 270.278 88.6768C265.721 88.6768 262.222 87.3747 259.78 84.7705C257.42 82.1663 256.24 78.9925 256.24 75.249ZM302.871 13.9697L307.632 0.0537109C318.781 3.14616 327.489 7.54069 333.755 13.2373C340.103 18.8525 344.578 25.4036 347.183 32.8906C349.787 40.2962 351.089 48.2715 351.089 56.8164V82.085C351.089 87.9443 351.984 93.0713 353.774 97.4658C355.565 101.779 358.332 105.116 362.075 107.476C365.9 109.836 370.864 111.016 376.968 111.016V124.81C365.493 124.81 356.175 122.979 349.014 119.316C341.852 115.573 336.603 110.487 333.267 104.058C330.011 97.5472 328.384 90.223 328.384 82.085V56.8164C328.384 50.1432 327.611 43.9583 326.064 38.2617C324.518 32.4837 321.873 27.5195 318.13 23.3691C314.468 19.1374 309.382 16.0042 302.871 13.9697ZM307.632 239.678L302.871 225.64C309.3 223.605 314.346 220.472 318.008 216.24C321.751 212.09 324.396 207.166 325.942 201.47C327.57 195.773 328.384 189.588 328.384 182.915V157.769C328.384 149.549 330.011 142.225 333.267 135.796C336.603 129.367 341.852 124.321 349.014 120.659C356.175 116.916 365.493 115.044 376.968 115.044V128.716C367.853 128.716 361.261 131.361 357.192 136.65C353.123 141.859 351.089 148.898 351.089 157.769V182.915C351.089 191.46 349.787 199.435 347.183 206.841C344.578 214.328 340.103 220.879 333.755 226.494C327.489 232.109 318.781 236.504 307.632 239.678Z" fill="#663399"/>
</svg>
